<?xml version="1.0" standalone="no"?>
<!DOCTYPE svg PUBLIC "-//W3C//DTD SVG 20010904//EN"
 "http://www.w3.org/TR/2001/REC-SVG-20010904/DTD/svg10.dtd">
<svg version="1.0" xmlns="http://www.w3.org/2000/svg"
 width="521.000000pt" height="521.000000pt" viewBox="0 0 521.000000 521.000000"
 preserveAspectRatio="xMidYMid meet">
<metadata>
Created by potrace 1.11, written by Peter Selinger 2001-2013
</metadata>
<g transform="translate(0.000000,521.000000) scale(0.100000,-0.100000)"
fill="#000000" stroke="none">
<path d="M1878 4515 c-2 -1 -52 -5 -113 -9 -311 -19 -648 -135 -910 -314 -60
-41 -112 -78 -115 -81 -3 -3 -27 -24 -55 -46 -122 -96 -298 -302 -388 -451
-138 -230 -235 -510 -265 -769 -15 -129 -6 -404 18 -535 45 -252 157 -526 297
-729 133 -194 313 -375 478 -484 39 -26 75 -50 81 -54 41 -31 165 -95 267
-137 209 -88 375 -127 592 -141 44 -3 94 -7 110 -10 17 -2 57 -7 90 -10 33 -3
74 -8 90 -10 17 -2 80 -7 140 -10 61 -3 133 -8 162 -10 53 -5 219 -11 523 -20
481 -13 1223 1 1560 31 30 2 87 7 125 9 39 3 88 7 110 10 22 2 60 7 85 9 104
12 147 18 185 26 22 5 60 12 85 15 24 4 59 13 77 20 19 8 34 13 36 13 1 -1 15
6 30 17 l28 18 -21 22 c-41 43 -261 87 -555 110 -44 4 -91 8 -103 10 -13 2
-70 7 -125 10 -56 4 -124 8 -152 10 -166 12 -507 19 -898 19 -405 1 -447 2
-426 16 154 101 392 324 479 450 13 19 27 37 30 40 3 3 19 27 35 54 17 27 43
69 58 95 117 193 216 499 242 749 13 125 7 386 -10 452 -2 8 -7 35 -10 60 -16
121 -84 336 -150 475 -184 386 -486 692 -870 883 -170 84 -323 134 -516 167
-13 2 -37 7 -54 10 -16 3 -77 8 -135 11 -58 3 -113 7 -122 8 -9 2 -18 3 -20 1z
m252 -300 c233 -34 456 -120 655 -253 123 -81 268 -213 345 -312 19 -25 37
-47 41 -50 12 -9 117 -176 142 -226 43 -87 73 -203 96 -372 10 -75 8 -350 -4
-412 -3 -19 -11 -61 -16 -94 -30 -173 -127 -426 -211 -553 -15 -23 -28 -44
-28 -48 0 -23 -173 -231 -260 -311 -101 -94 -128 -116 -206 -168 -302 -203
-614 -301 -959 -300 -148 0 -344 25 -455 58 -53 16 -165 72 -226 113 -23 15
-68 46 -100 68 -33 21 -113 93 -179 160 -249 248 -397 546 -454 915 -14 84 -5
373 13 475 63 343 198 602 443 853 224 228 556 405 838 446 23 4 52 9 65 12
14 2 66 7 115 10 50 3 91 7 92 8 3 3 208 -12 253 -19z"/>
<path d="M1138 3854 c-2 -2 -22 -4 -43 -5 -230 -10 -426 -175 -461 -389 -6
-35 -5 -251 1 -275 17 -71 24 -95 43 -137 41 -93 99 -163 227 -273 39 -33 86
-74 105 -91 19 -18 78 -69 130 -114 173 -150 260 -246 298 -328 30 -66 41
-202 23 -280 -16 -64 -67 -125 -124 -147 -54 -21 -148 -23 -209 -6 -94 27
-174 140 -201 286 -2 11 -7 31 -10 45 -4 14 -9 47 -11 74 -3 26 -7 51 -10 54
-3 3 -66 -11 -138 -30 l-133 -35 3 -69 c4 -89 34 -201 78 -289 98 -201 285
-306 531 -300 249 6 431 133 503 350 19 57 24 92 24 185 1 205 -42 318 -192
503 -46 56 -108 114 -352 327 -9 8 -46 40 -81 70 -175 149 -221 220 -227 352
-9 170 70 264 228 273 89 5 142 -11 195 -57 72 -63 116 -184 124 -345 1 -19
24 -16 151 20 136 39 129 25 96 202 -7 38 -49 149 -69 184 -55 97 -130 163
-227 201 -59 23 -84 28 -175 36 -33 3 -68 7 -77 8 -9 2 -18 2 -20 0z"/>
<path d="M2497 3854 c-1 -1 -29 -4 -62 -5 -61 -3 -123 -14 -160 -29 -212 -86
-314 -233 -318 -464 -5 -196 27 -306 122 -426 46 -59 61 -74 151 -151 41 -35
81 -71 90 -79 21 -19 123 -108 175 -151 22 -18 84 -77 137 -131 73 -74 105
-114 129 -165 31 -64 33 -75 33 -183 1 -124 -12 -167 -66 -217 -77 -73 -266
-76 -343 -6 -29 26 -79 93 -93 126 -18 42 -50 176 -55 236 -3 29 -8 55 -11 58
-3 3 -65 -10 -138 -29 l-133 -34 1 -49 c3 -154 69 -331 164 -437 72 -81 167
-135 279 -159 104 -23 260 -14 372 20 90 27 214 134 262 226 47 89 60 149 60
280 0 92 -2 116 -17 183 -22 101 -87 214 -195 340 -43 50 -191 184 -405 365
-187 158 -235 234 -236 368 -1 113 24 176 87 219 50 35 97 47 173 45 166 -5
247 -101 281 -332 10 -64 16 -83 28 -83 9 1 68 15 131 33 134 38 130 29 95
200 -29 145 -137 311 -232 361 -34 17 -120 47 -148 52 -52 8 -155 20 -158 18z"/>
</g>
</svg>
